<?xml version="1.0" encoding="UTF-8" standalone="no"?>
<svg
   id="layer"
   width="81.146103"
   height="81.146103"
   version="1.1"
   viewBox="0 0 81.099997 80.668773"
   sodipodi:docname="piapro.svg"
   inkscape:version="1.1.1 (3bf5ae0d25, 2021-09-20)"
   xmlns:inkscape="http://www.inkscape.org/namespaces/inkscape"
   xmlns:sodipodi="http://sodipodi.sourceforge.net/DTD/sodipodi-0.dtd"
   xmlns="http://www.w3.org/2000/svg"
   xmlns:svg="http://www.w3.org/2000/svg">
  <defs
     id="defs9" />
  <sodipodi:namedview
     id="namedview7"
     pagecolor="#ffffff"
     bordercolor="#666666"
     borderopacity="1.0"
     inkscape:pageshadow="2"
     inkscape:pageopacity="0.0"
     inkscape:pagecheckerboard="0"
     showgrid="false"
     fit-margin-top="0"
     fit-margin-left="0"
     fit-margin-right="0"
     fit-margin-bottom="0"
     inkscape:zoom="3.0056818"
     inkscape:cx="76.022684"
     inkscape:cy="41.754253"
     inkscape:window-width="1920"
     inkscape:window-height="1017"
     inkscape:window-x="-8"
     inkscape:window-y="-8"
     inkscape:window-maximized="1"
     inkscape:current-layer="layer" />
  <style
     id="style2">.st0{fill:#ff0982}</style>
  <path
     d="m 40.509348,-0.22585227 c -15.9,0 -29.4,11.80000027 -31.6000001,27.60000027 -0.2,0.7 -0.3,1.5 -0.3,2.3 v 51.2 l 17.6000001,-11.5 v -37.7 c 0,-7.9 6.4,-14.4 14.3,-14.4 7.9,0 14.4,6.4 14.4,14.3 0,7.9 -6.4,14.4 -14.3,14.4 -2.6,0 -5.2,-0.7 -7.5,-2.1 v 18.8 c 17.2,4.1 34.4,-6.5 38.5,-23.7 4.1,-17.2 -6.5,-34.3000003 -23.6,-38.30000027 -2.5,-0.6 -5,-0.9 -7.5,-0.9 z"
     class="st0"
     id="path4"
     sodipodi:nodetypes="scsccssssccscs" />
</svg>
